<?xml version="1.0" encoding="utf-8"?>
<!-- Generator: Adobe Illustrator 25.2.3, SVG Export Plug-In . SVG Version: 6.00 Build 0)  -->
<svg version="1.1" id="Layer_1" xmlns="http://www.w3.org/2000/svg" xmlns:xlink="http://www.w3.org/1999/xlink" x="0px" y="0px"
	 viewBox="0 0 255.1 255.1" style="enable-background:new 0 0 255.1 255.1;" xml:space="preserve">
<style type="text/css">
	.st0{fill:#7D2EF7;}
</style>
<g>
	<path class="st0" d="M0,6.9h118.9c26.9,0,50.6,4.9,71.2,14.7c20.6,9.8,36.5,23.7,47.9,41.9c11.4,18.2,17.1,39.5,17.1,64.1
		c0,24.6-5.7,46-17.1,64.1c-11.4,18.2-27.4,32.1-47.9,41.9c-20.6,9.8-44.3,14.7-71.2,14.7H0V6.9z M115.5,184.8
		c17.5,0,31.4-5,41.9-15c10.5-10,15.7-24.1,15.7-42.2c0-18.2-5.2-32.2-15.7-42.2c-10.5-10-24.4-15-41.9-15H81.4v114.5H115.5z"/>
</g>
</svg>
